<?xml version="1.0" standalone="no"?><!DOCTYPE svg PUBLIC "-//W3C//DTD SVG 1.1//EN" "http://www.w3.org/Graphics/SVG/1.1/DTD/svg11.dtd"><svg class="icon" width="200px" height="200.00px" viewBox="0 0 1024 1024" version="1.1" xmlns="http://www.w3.org/2000/svg"><path d="M440.106 583.696l-8.666-17.333-39.394 115.816a90.21 90.21 0 0 1-12.605 22.06l-78.787 111.483a43.726 43.726 0 0 0-5.515 35.454 46.484 46.484 0 0 0 21.272 29.544 51.211 51.211 0 0 0 29.151 9.06 48.848 48.848 0 0 0 10.637 0 47.272 47.272 0 0 0 31.12-22.453l74.453-110.301a275.752 275.752 0 0 0 23.242-45.302l21.667-60.272-5.91-3.151a159.936 159.936 0 0 1-60.665-64.605zM582.71 293.368a88.635 88.635 0 0 0 89.422-87.453 89.423 89.423 0 0 0-178.845 0 88.635 88.635 0 0 0 89.423 87.453z m83.513 384.477l-68.938-125.664-2.364-3.94-6.696-9.848 5.12-25.605 22.06-89.029a108.331 108.331 0 0 0-78.786-128.816 88.635 88.635 0 0 0-26.787-4.333 60.666 60.666 0 0 0-47.666 14.182l-89.028 84.695a90.21 90.21 0 0 0-12.606 18.515L309.32 515.939a39.393 39.393 0 0 0 20.484 54.363 44.514 44.514 0 0 0 57.908-18.12l52-109.12 14.969-14.182-13 56.333c-13 48.06-6.697 118.18 94.937 172.936l3.152 1.97 30.333 54.756a861.53 861.53 0 0 1 31.908 152.452 44.12 44.12 0 0 0 19.697 31.12 53.575 53.575 0 0 0 29.939 9.06h6.303a51.605 51.605 0 0 0 33.09-17.332 49.635 49.635 0 0 0 10.242-39.393l-19.303-133.15a149.694 149.694 0 0 0-15.757-39.787z m59.09-169.39a39.393 39.393 0 0 0-19.697-22.848l-78.786-39.394-20.485 83.514 60.666 32.302a39.393 39.393 0 0 0 20.09 5.91 45.302 45.302 0 0 0 39.394-59.09z" fill="#13227a" /></svg>